<mxfile host="app.diagrams.net" agent="Mozilla/5.0 (X11; Linux x86_64) AppleWebKit/537.36 (KHTML, like Gecko) Chrome/131.0.0.0 Safari/537.36" version="24.9.0">
  <diagram id="prtHgNgQTEPvFCAcTncT" name="Page-1">
    <mxGraphModel dx="880" dy="442" grid="1" gridSize="10" guides="1" tooltips="1" connect="1" arrows="1" fold="1" page="1" pageScale="1" pageWidth="827" pageHeight="1169" math="0" shadow="0">
      <root>
        <mxCell id="0" />
        <mxCell id="1" parent="0" />
        <mxCell id="pFB4rG8vx2aegx0_I_IE-34" value="" style="edgeStyle=orthogonalEdgeStyle;rounded=0;orthogonalLoop=1;jettySize=auto;html=1;" edge="1" parent="1" source="pFB4rG8vx2aegx0_I_IE-32" target="pFB4rG8vx2aegx0_I_IE-33">
          <mxGeometry relative="1" as="geometry" />
        </mxCell>
        <mxCell id="pFB4rG8vx2aegx0_I_IE-32" value="Inicio" style="rounded=1;whiteSpace=wrap;html=1;" vertex="1" parent="1">
          <mxGeometry x="80" y="340" width="120" height="60" as="geometry" />
        </mxCell>
        <mxCell id="pFB4rG8vx2aegx0_I_IE-36" value="" style="edgeStyle=orthogonalEdgeStyle;rounded=0;orthogonalLoop=1;jettySize=auto;html=1;" edge="1" parent="1" source="pFB4rG8vx2aegx0_I_IE-33">
          <mxGeometry relative="1" as="geometry">
            <mxPoint x="140" y="540" as="targetPoint" />
          </mxGeometry>
        </mxCell>
        <mxCell id="pFB4rG8vx2aegx0_I_IE-33" value="Leitura de&amp;nbsp;&lt;div&gt;sensores&lt;/div&gt;" style="shape=parallelogram;perimeter=parallelogramPerimeter;whiteSpace=wrap;html=1;fixedSize=1;" vertex="1" parent="1">
          <mxGeometry x="80" y="440" width="120" height="60" as="geometry" />
        </mxCell>
        <mxCell id="pFB4rG8vx2aegx0_I_IE-38" value="" style="edgeStyle=orthogonalEdgeStyle;rounded=0;orthogonalLoop=1;jettySize=auto;html=1;" edge="1" parent="1" target="pFB4rG8vx2aegx0_I_IE-37">
          <mxGeometry relative="1" as="geometry">
            <mxPoint x="200" y="570" as="sourcePoint" />
          </mxGeometry>
        </mxCell>
        <mxCell id="pFB4rG8vx2aegx0_I_IE-41" value="Envia comandos automaticamente" style="edgeStyle=orthogonalEdgeStyle;rounded=0;orthogonalLoop=1;jettySize=auto;html=1;curved=1;" edge="1" parent="1" source="pFB4rG8vx2aegx0_I_IE-37" target="pFB4rG8vx2aegx0_I_IE-40">
          <mxGeometry x="0.5455" y="10" relative="1" as="geometry">
            <mxPoint as="offset" />
          </mxGeometry>
        </mxCell>
        <mxCell id="pFB4rG8vx2aegx0_I_IE-43" value="" style="edgeStyle=orthogonalEdgeStyle;rounded=0;orthogonalLoop=1;jettySize=auto;html=1;curved=1;" edge="1" parent="1" source="pFB4rG8vx2aegx0_I_IE-37" target="pFB4rG8vx2aegx0_I_IE-42">
          <mxGeometry relative="1" as="geometry" />
        </mxCell>
        <mxCell id="pFB4rG8vx2aegx0_I_IE-44" value="Aguarda comando externo" style="edgeLabel;html=1;align=center;verticalAlign=middle;resizable=0;points=[];" vertex="1" connectable="0" parent="pFB4rG8vx2aegx0_I_IE-43">
          <mxGeometry x="0.1765" y="-4" relative="1" as="geometry">
            <mxPoint y="41" as="offset" />
          </mxGeometry>
        </mxCell>
        <mxCell id="pFB4rG8vx2aegx0_I_IE-37" value="&lt;font style=&quot;font-size: 9px;&quot;&gt;Automático&lt;/font&gt;&lt;div&gt;&lt;font style=&quot;font-size: 9px;&quot;&gt;ou manual?&lt;/font&gt;&lt;/div&gt;" style="rhombus;whiteSpace=wrap;html=1;" vertex="1" parent="1">
          <mxGeometry x="110" y="660" width="80" height="80" as="geometry" />
        </mxCell>
        <mxCell id="pFB4rG8vx2aegx0_I_IE-39" value="Calculo da&amp;nbsp;&lt;div&gt;inclinação&lt;/div&gt;" style="rounded=0;whiteSpace=wrap;html=1;" vertex="1" parent="1">
          <mxGeometry x="90" y="540" width="120" height="60" as="geometry" />
        </mxCell>
        <mxCell id="pFB4rG8vx2aegx0_I_IE-46" value="" style="edgeStyle=orthogonalEdgeStyle;rounded=0;orthogonalLoop=1;jettySize=auto;html=1;" edge="1" parent="1" source="pFB4rG8vx2aegx0_I_IE-40" target="pFB4rG8vx2aegx0_I_IE-45">
          <mxGeometry relative="1" as="geometry" />
        </mxCell>
        <mxCell id="pFB4rG8vx2aegx0_I_IE-40" value="Envia comando para o atuador" style="rounded=0;whiteSpace=wrap;html=1;" vertex="1" parent="1">
          <mxGeometry x="250" y="540" width="120" height="60" as="geometry" />
        </mxCell>
        <mxCell id="pFB4rG8vx2aegx0_I_IE-47" value="" style="edgeStyle=orthogonalEdgeStyle;rounded=0;orthogonalLoop=1;jettySize=auto;html=1;" edge="1" parent="1" source="pFB4rG8vx2aegx0_I_IE-42" target="pFB4rG8vx2aegx0_I_IE-45">
          <mxGeometry relative="1" as="geometry" />
        </mxCell>
        <mxCell id="pFB4rG8vx2aegx0_I_IE-42" value="Recebe comando externo via aplicativo ou knob externo" style="rounded=0;whiteSpace=wrap;html=1;" vertex="1" parent="1">
          <mxGeometry x="240" y="810" width="120" height="60" as="geometry" />
        </mxCell>
        <mxCell id="pFB4rG8vx2aegx0_I_IE-49" value="" style="edgeStyle=orthogonalEdgeStyle;rounded=0;orthogonalLoop=1;jettySize=auto;html=1;" edge="1" parent="1" source="pFB4rG8vx2aegx0_I_IE-45" target="pFB4rG8vx2aegx0_I_IE-48">
          <mxGeometry relative="1" as="geometry" />
        </mxCell>
        <mxCell id="pFB4rG8vx2aegx0_I_IE-45" value="Controle de motores via pwm" style="rounded=0;whiteSpace=wrap;html=1;" vertex="1" parent="1">
          <mxGeometry x="400" y="680" width="120" height="60" as="geometry" />
        </mxCell>
        <mxCell id="pFB4rG8vx2aegx0_I_IE-51" value="" style="edgeStyle=orthogonalEdgeStyle;rounded=0;orthogonalLoop=1;jettySize=auto;html=1;" edge="1" parent="1" source="pFB4rG8vx2aegx0_I_IE-48" target="pFB4rG8vx2aegx0_I_IE-50">
          <mxGeometry relative="1" as="geometry" />
        </mxCell>
        <mxCell id="pFB4rG8vx2aegx0_I_IE-57" value="" style="edgeStyle=orthogonalEdgeStyle;rounded=0;orthogonalLoop=1;jettySize=auto;html=1;" edge="1" parent="1" source="pFB4rG8vx2aegx0_I_IE-48" target="pFB4rG8vx2aegx0_I_IE-52">
          <mxGeometry relative="1" as="geometry" />
        </mxCell>
        <mxCell id="pFB4rG8vx2aegx0_I_IE-48" value="Exibição de&amp;nbsp;&lt;div&gt;dados&lt;/div&gt;" style="shape=parallelogram;perimeter=parallelogramPerimeter;whiteSpace=wrap;html=1;fixedSize=1;" vertex="1" parent="1">
          <mxGeometry x="580" y="680" width="120" height="60" as="geometry" />
        </mxCell>
        <mxCell id="pFB4rG8vx2aegx0_I_IE-50" value="Display" style="shape=offPageConnector;whiteSpace=wrap;html=1;rotation=0;rotatable=1;direction=south;" vertex="1" parent="1">
          <mxGeometry x="600" y="770" width="80" height="80" as="geometry" />
        </mxCell>
        <mxCell id="pFB4rG8vx2aegx0_I_IE-63" value="" style="edgeStyle=orthogonalEdgeStyle;rounded=0;orthogonalLoop=1;jettySize=auto;html=1;" edge="1" parent="1" source="pFB4rG8vx2aegx0_I_IE-52" target="pFB4rG8vx2aegx0_I_IE-59">
          <mxGeometry relative="1" as="geometry" />
        </mxCell>
        <mxCell id="pFB4rG8vx2aegx0_I_IE-52" value="Exibição no aplicativo" style="rounded=0;whiteSpace=wrap;html=1;" vertex="1" parent="1">
          <mxGeometry x="580" y="570" width="120" height="60" as="geometry" />
        </mxCell>
        <mxCell id="pFB4rG8vx2aegx0_I_IE-61" value="" style="edgeStyle=orthogonalEdgeStyle;rounded=0;orthogonalLoop=1;jettySize=auto;html=1;" edge="1" parent="1" source="pFB4rG8vx2aegx0_I_IE-59" target="pFB4rG8vx2aegx0_I_IE-60">
          <mxGeometry relative="1" as="geometry" />
        </mxCell>
        <mxCell id="pFB4rG8vx2aegx0_I_IE-59" value="&lt;font style=&quot;font-size: 8px;&quot;&gt;armazenamento&lt;/font&gt;" style="triangle;whiteSpace=wrap;html=1;direction=south;" vertex="1" parent="1">
          <mxGeometry x="600" y="460" width="80" height="60" as="geometry" />
        </mxCell>
        <mxCell id="pFB4rG8vx2aegx0_I_IE-60" value="Banco de&lt;div&gt;dados&lt;/div&gt;" style="shape=cylinder3;whiteSpace=wrap;html=1;boundedLbl=1;backgroundOutline=1;size=15;" vertex="1" parent="1">
          <mxGeometry x="610" y="330" width="60" height="80" as="geometry" />
        </mxCell>
        <mxCell id="pFB4rG8vx2aegx0_I_IE-64" value="" style="endArrow=classic;html=1;rounded=0;entryX=1;entryY=0.5;entryDx=0;entryDy=0;" edge="1" parent="1" target="pFB4rG8vx2aegx0_I_IE-33">
          <mxGeometry width="50" height="50" relative="1" as="geometry">
            <mxPoint x="500" y="680" as="sourcePoint" />
            <mxPoint x="500" y="470" as="targetPoint" />
            <Array as="points">
              <mxPoint x="500" y="470" />
            </Array>
          </mxGeometry>
        </mxCell>
      </root>
    </mxGraphModel>
  </diagram>
</mxfile>
